<?xml version="1.0" standalone="no"?>
<!DOCTYPE svg PUBLIC "-//W3C//DTD SVG 20010904//EN"
 "http://www.w3.org/TR/2001/REC-SVG-20010904/DTD/svg10.dtd">
<svg version="1.0" xmlns="http://www.w3.org/2000/svg"
 width="512.000000pt" height="512.000000pt" viewBox="0 0 512.000000 512.000000"
 preserveAspectRatio="xMidYMid meet">
<metadata>
Created by potrace 1.14, written by Peter Selinger 2001-2017
</metadata>
<g transform="translate(0.000000,512.000000) scale(0.100000,-0.100000)"
fill="#000000" stroke="none">
<path d="M2379 5116 c-2 -2 -40 -6 -83 -10 -44 -4 -82 -8 -85 -10 -3 -2 -31
-7 -61 -11 -30 -3 -75 -11 -100 -17 -25 -5 -56 -12 -70 -14 -14 -3 -72 -18
-129 -35 -464 -133 -906 -414 -1213 -769 -71 -82 -82 -96 -104 -125 -10 -15
-33 -46 -50 -69 -253 -340 -426 -793 -472 -1236 -14 -138 -6 -535 13 -615 2
-11 6 -36 9 -55 3 -29 29 -156 42 -210 15 -64 36 -138 44 -155 5 -11 12 -31
16 -45 25 -92 170 -411 221 -487 11 -15 46 -68 79 -118 393 -596 1035 -1000
1765 -1111 124 -19 503 -26 637 -11 1047 113 1932 874 2197 1890 37 142 60
267 72 387 13 121 9 506 -6 605 -60 414 -216 809 -446 1135 -362 511 -888 871
-1485 1016 -58 14 -116 28 -130 30 -70 11 -85 14 -195 30 -44 6 -460 15 -466
10z"/>
</g>
</svg>
